<svg xmlns="http://www.w3.org/2000/svg" width="21.503" height="21.503" viewBox="0 0 21.503 21.503"><defs><style>.a{fill:#c09340;}</style></defs><path class="a" d="M18.984,1.68H17.976V0H16.3V1.68H5.208V0H3.528V1.68H2.52A2.523,2.523,0,0,0,0,4.2V18.984A2.523,2.523,0,0,0,2.52,21.5H18.984a2.523,2.523,0,0,0,2.52-2.52V4.2A2.523,2.523,0,0,0,18.984,1.68Zm.84,17.3a.841.841,0,0,1-.84.84H2.52a.841.841,0,0,1-.84-.84V7.9H19.823Zm0-12.768H1.68V4.2a.841.841,0,0,1,.84-.84H3.528V5.04h1.68V3.36H16.3V5.04h1.68V3.36h1.008a.841.841,0,0,1,.84.84Z"/></svg>