<svg id="Component_13_4" data-name="Component 13 – 4" xmlns="http://www.w3.org/2000/svg" width="14.201" height="27.004" viewBox="0 0 14.201 27.004">
  <defs>
    <style>
      .cls-1 {
        fill: #c09340;
      }
    </style>
  </defs>
  <g id="Group_27" data-name="Group 27">
    <path id="Path_47" data-name="Path 47" class="cls-1" d="M58.333,57.969c.723,0,1.45.039,2.169.072.47.019.94.086,1.381.134l-.033,4.349H61.5c-.477,0-.954-.006-1.431-.006-.358,0-.716,0-1.074.015-1.153.039-2,.471-2.059,1.91-.037,1.037-.063,3.326-.065,3.446.06,0,1.2,0,2.344,0,.573,0,1.133,0,1.524,0h.931c-.234,1.67-.447,3.272-.68,4.886H56.877l-.093,12.2H51.726l.093-12.218H47.682l.037-4.857h4.157l0-.365c.008-.979,0-1.958.032-2.937a12.143,12.143,0,0,1,.158-1.862,5.526,5.526,0,0,1,2.216-3.628,6.362,6.362,0,0,1,3.647-1.132Q58.132,57.969,58.333,57.969Z" transform="translate(-47.682 -57.969)"/>
  </g>
</svg>
