<svg id="Component_15_4" data-name="Component 15 – 4" xmlns="http://www.w3.org/2000/svg" width="26.904" height="26.892" viewBox="0 0 26.904 26.892">
  <defs>
    <style>
      .cls-1 {
        fill: #c09340;
      }
    </style>
  </defs>
  <g id="Group_31" data-name="Group 31" transform="translate(19.063 4.677)">
    <path id="Path_55" data-name="Path 55" class="cls-1" d="M224.11,65.016h.019a1.6,1.6,0,0,1,1.6,1.62,1.63,1.63,0,0,1-1.632,1.609,1.615,1.615,0,0,1,.016-3.229Z" transform="translate(-222.497 -65.016)"/>
  </g>
  <g id="Group_32" data-name="Group 32">
    <path id="Path_56" data-name="Path 56" class="cls-1" d="M227.276,66.379c.2,2.116.329,12.119-.293,14.462a6.885,6.885,0,0,1-5.939,5.379,66.483,66.483,0,0,1-7.42.3,45.707,45.707,0,0,1-7.474-.4,6.747,6.747,0,0,1-5.355-5.865c-.361-2.268-.4-12.81.255-15.1a6.86,6.86,0,0,1,5.861-5.228,52.421,52.421,0,0,1,6.741-.3c2.511,0,5.043.069,6.567.152a7.411,7.411,0,0,1,4.91,2.009A7.078,7.078,0,0,1,227.276,66.379Zm-2.587,13.436a96.425,96.425,0,0,0,.166-13.21,4.524,4.524,0,0,0-4.028-4.288,61.643,61.643,0,0,0-6.725-.254c-2.678,0-5.344.073-6.517.2a4.609,4.609,0,0,0-4.3,4.051,91.694,91.694,0,0,0-.093,13.577,4.361,4.361,0,0,0,3.32,3.8,41.629,41.629,0,0,0,7.234.4c2.821,0,5.591-.089,6.633-.2a4.591,4.591,0,0,0,4.307-4.071" transform="translate(-200.537 -59.628)"/>
  </g>
  <g id="Group_33" data-name="Group 33" transform="translate(6.555 6.557)">
    <path id="Path_57" data-name="Path 57" class="cls-1" d="M215.042,67.181a6.835,6.835,0,0,1,6.839,6.9,6.962,6.962,0,0,1-6.954,6.891,6.829,6.829,0,0,1-6.839-6.9A6.949,6.949,0,0,1,215.042,67.181Zm-.1,11.352a4.5,4.5,0,0,0,4.5-4.418,4.416,4.416,0,0,0-4.384-4.5h-.04a4.5,4.5,0,0,0-4.5,4.418,4.421,4.421,0,0,0,4.383,4.5h.041" transform="translate(-208.088 -67.181)"/>
  </g>
</svg>
