<svg id="Heritage_Dulwich" data-name="Heritage Dulwich" xmlns="http://www.w3.org/2000/svg" xmlns:xlink="http://www.w3.org/1999/xlink" width="169.084" height="134.914" viewBox="0 0 169.084 134.914">
  <defs>
    <style>
      .cls-1 {
        fill: url(#linear-gradient);
      }

      .cls-2 {
        fill: url(#linear-gradient-2);
      }

      .cls-3 {
        fill: url(#linear-gradient-3);
      }

      .cls-4 {
        fill: url(#linear-gradient-4);
      }

      .cls-5 {
        fill: url(#linear-gradient-5);
      }

      .cls-6 {
        fill: url(#linear-gradient-6);
      }

      .cls-7 {
        fill: url(#linear-gradient-7);
      }

      .cls-8 {
        fill: url(#linear-gradient-8);
      }

      .cls-9 {
        fill: url(#linear-gradient-9);
      }

      .cls-10 {
        fill: url(#linear-gradient-10);
      }

      .cls-11 {
        fill: url(#linear-gradient-11);
      }

      .cls-12 {
        fill: url(#linear-gradient-12);
      }

      .cls-13 {
        fill: url(#linear-gradient-13);
      }

      .cls-14 {
        fill: url(#linear-gradient-14);
      }

      .cls-15 {
        fill: url(#linear-gradient-15);
      }

      .cls-16 {
        fill: url(#linear-gradient-16);
      }

      .cls-17 {
        fill: url(#linear-gradient-17);
      }

      .cls-18 {
        fill: none;
      }

      .cls-19 {
        fill: url(#linear-gradient-18);
      }

      .cls-20 {
        fill: url(#linear-gradient-19);
      }

      .cls-21 {
        fill: url(#linear-gradient-20);
      }

      .cls-22 {
        fill: url(#linear-gradient-21);
      }

      .cls-23 {
        fill: url(#linear-gradient-22);
      }

      .cls-24 {
        fill: url(#linear-gradient-23);
      }

      .cls-25 {
        fill: url(#linear-gradient-24);
      }

      .cls-26 {
        fill: url(#linear-gradient-25);
      }

      .cls-27 {
        fill: url(#linear-gradient-26);
      }

      .cls-28 {
        fill: url(#linear-gradient-27);
      }

      .cls-29 {
        fill: url(#linear-gradient-28);
      }

      .cls-30 {
        fill: url(#linear-gradient-29);
      }

      .cls-31 {
        fill: url(#linear-gradient-30);
      }

      .cls-32 {
        fill: url(#linear-gradient-31);
      }

      .cls-33 {
        fill: url(#linear-gradient-32);
      }

      .cls-34 {
        fill: url(#linear-gradient-33);
      }
    </style>
    <linearGradient id="linear-gradient" x1="-0.094" y1="-20.506" x2="1.022" y2="18.98" gradientUnits="objectBoundingBox">
      <stop offset="0" stop-color="#efc75f"/>
      <stop offset="0.23" stop-color="#a8702b"/>
      <stop offset="0.33" stop-color="#e2b756"/>
      <stop offset="0.46" stop-color="#f9f2b7"/>
      <stop offset="0.58" stop-color="#e2b756"/>
      <stop offset="0.69" stop-color="#905e21"/>
      <stop offset="1" stop-color="#e2b756"/>
    </linearGradient>
    <linearGradient id="linear-gradient-2" x1="0.308" y1="1.757" x2="0.684" y2="-0.936" xlink:href="#linear-gradient"/>
    <linearGradient id="linear-gradient-3" x1="-0.612" y1="1.249" x2="1.707" y2="-0.314" xlink:href="#linear-gradient"/>
    <linearGradient id="linear-gradient-4" x1="-4.732" y1="1.31" x2="6.333" y2="-0.253" xlink:href="#linear-gradient"/>
    <linearGradient id="linear-gradient-5" x1="0.222" y1="1.887" x2="0.954" y2="-0.45" xlink:href="#linear-gradient"/>
    <linearGradient id="linear-gradient-6" x1="0.162" y1="1.86" x2="0.744" y2="-0.44" xlink:href="#linear-gradient"/>
    <linearGradient id="linear-gradient-7" x1="-1.245" y1="1.319" x2="1.29" y2="-0.244" xlink:href="#linear-gradient"/>
    <linearGradient id="linear-gradient-8" x1="0.308" y1="19.912" x2="0.664" y2="-17.838" xlink:href="#linear-gradient"/>
    <linearGradient id="linear-gradient-9" x1="0.297" y1="8.917" x2="0.679" y2="-7.384" xlink:href="#linear-gradient"/>
    <linearGradient id="linear-gradient-10" x1="-0.769" y1="1.337" x2="0.985" y2="-0.227" xlink:href="#linear-gradient"/>
    <linearGradient id="linear-gradient-11" x1="0.144" y1="1.42" x2="0.796" y2="-0.127" xlink:href="#linear-gradient"/>
    <linearGradient id="linear-gradient-12" x1="55.601" y1="18.714" x2="57.185" y2="18.489" xlink:href="#linear-gradient"/>
    <linearGradient id="linear-gradient-13" x1="-3.356" y1="1.937" x2="2.894" y2="-0.372" xlink:href="#linear-gradient"/>
    <linearGradient id="linear-gradient-14" x1="-0.518" y1="0.875" x2="3.507" y2="-0.568" xlink:href="#linear-gradient"/>
    <linearGradient id="linear-gradient-15" x1="-5.113" y1="2.169" x2="6.72" y2="0.349" xlink:href="#linear-gradient"/>
    <linearGradient id="linear-gradient-16" x1="-0.36" y1="0.917" x2="5.66" y2="-1.987" xlink:href="#linear-gradient"/>
    <linearGradient id="linear-gradient-17" x1="0.118" y1="1.035" x2="2.568" y2="-2.721" xlink:href="#linear-gradient"/>
    <linearGradient id="linear-gradient-18" x1="-0.147" y1="0.759" x2="1.35" y2="-0.045" xlink:href="#linear-gradient"/>
    <linearGradient id="linear-gradient-19" x1="-0.423" y1="0.177" x2="8.385" y2="3.261" xlink:href="#linear-gradient"/>
    <linearGradient id="linear-gradient-20" x1="-2.177" y1="-0.182" x2="9.925" y2="2.904" xlink:href="#linear-gradient"/>
    <linearGradient id="linear-gradient-21" x1="-2.904" y1="-0.477" x2="7.245" y2="2.604" xlink:href="#linear-gradient"/>
    <linearGradient id="linear-gradient-22" x1="-8.403" y1="-0.805" x2="12.636" y2="2.28" xlink:href="#linear-gradient"/>
    <linearGradient id="linear-gradient-23" x1="-5.349" y1="-1.099" x2="6.124" y2="1.987" xlink:href="#linear-gradient"/>
    <linearGradient id="linear-gradient-24" x1="-5.336" y1="-1.348" x2="4.026" y2="1.737" xlink:href="#linear-gradient"/>
    <linearGradient id="linear-gradient-25" x1="-6.514" y1="-1.751" x2="2.935" y2="1.24" xlink:href="#linear-gradient"/>
    <linearGradient id="linear-gradient-26" x1="-9.854" y1="-2.139" x2="2.247" y2="0.946" xlink:href="#linear-gradient"/>
    <linearGradient id="linear-gradient-27" x1="-6.594" y1="-0.705" x2="18.314" y2="3.656" xlink:href="#linear-gradient"/>
    <linearGradient id="linear-gradient-28" x1="-9.326" y1="-1.125" x2="17.318" y2="3.193" xlink:href="#linear-gradient"/>
    <linearGradient id="linear-gradient-29" x1="-13.039" y1="-1.424" x2="16.993" y2="2.931" xlink:href="#linear-gradient"/>
    <linearGradient id="linear-gradient-30" x1="-7.364" y1="-1.861" x2="7.397" y2="2.488" xlink:href="#linear-gradient"/>
    <linearGradient id="linear-gradient-31" x1="-40.765" y1="-2.188" x2="25.889" y2="2.154" xlink:href="#linear-gradient"/>
    <linearGradient id="linear-gradient-32" x1="-16.915" y1="-2.504" x2="8.206" y2="1.822" xlink:href="#linear-gradient"/>
    <linearGradient id="linear-gradient-33" x1="-18.104" y1="-2.893" x2="5.734" y2="1.455" xlink:href="#linear-gradient"/>
  </defs>
  <rect id="Rectangle_1" data-name="Rectangle 1" class="cls-1" width="169.084" height="1.251" transform="translate(0 115.28)"/>
  <g id="Group_2" data-name="Group 2" transform="translate(55.503)">
    <g id="Group_1" data-name="Group 1">
      <path id="Path_1" data-name="Path 1" class="cls-2" d="M203.207,98.1a15.98,15.98,0,0,0-7.467-7.923A16.8,16.8,0,0,0,189.1,88.85a22.312,22.312,0,0,0-3.982.372,54.516,54.516,0,0,0-11.944,3.818c-3.981,1.782-7.63,3.609-10.952,5.391l-3.361,1.7c-4.647,2.323-8.42,3.689-11.324,4.066a51.846,51.846,0,0,1-6.841.621,27.659,27.659,0,0,1-5.972-.621c-5.6-1.286-9.954-3.485-13.151-6.677a21.323,21.323,0,0,1-6.1-10.783c.869,6.1,3.485,10.783,7.8,14.1s8.256,5.143,11.781,5.436c3.569.333,5.933.5,7.05.5a39.362,39.362,0,0,0,14.268-2.74q4.542-1.929,9.954-4.855c2.864-1.534,5.808-3.028,8.792-4.438a47.349,47.349,0,0,1,8.171-3.068,26.852,26.852,0,0,1,6.429-.953,20.465,20.465,0,0,1,2.78.209,10.1,10.1,0,0,1,8.3,4.478,13.9,13.9,0,0,1,2.492,5.267,23.2,23.2,0,0,1,.457,3.569c.04,4.264-2.2,8.514-6.846,8.961,3.331-.194,5.565-1.623,6.682-4.319a13.6,13.6,0,0,0,.913-4.935A14.249,14.249,0,0,0,203.207,98.1Z" transform="translate(-113.653 -43.678)"/>
      <path id="Path_2" data-name="Path 2" class="cls-3" d="M191.167,3.733v9.08a15.028,15.028,0,0,1,2.239,2.135V0H188.68Q190.6.812,191.167,3.733Z" transform="translate(-150.513)"/>
      <path id="Path_3" data-name="Path 3" class="cls-4" d="M203.728,58.779V45.36A25.711,25.711,0,0,0,203.728,58.779Z" transform="translate(-157.643 -22.841)"/>
      <path id="Path_4" data-name="Path 4" class="cls-5" d="M193.406,84.955a12.681,12.681,0,0,1-2.383-.655,4.319,4.319,0,0,1-2.343,3.152h4.726Z" transform="translate(-150.513 -42.45)"/>
      <path id="Path_5" data-name="Path 5" class="cls-6" d="M200.29,85.759v2.373h4.6a4.135,4.135,0,0,1-2.11-2.482,11.232,11.232,0,0,1-1.762.139Q200.655,85.789,200.29,85.759Z" transform="translate(-156.36 -43.129)"/>
      <path id="Path_6" data-name="Path 6" class="cls-7" d="M200.36,15.976a.283.283,0,0,0,.065,0,.567.567,0,0,0,.457-.343,9.643,9.643,0,0,1,1.594-2.586V8.961a4.711,4.711,0,0,1,2.487-3.689L200.355,0l-.015,15.971S200.35,15.976,200.36,15.976Z" transform="translate(-156.385)"/>
      <path id="Path_7" data-name="Path 7" class="cls-8" d="M277.532,140.11c.065,0,.124-.01.189-.01-.184,0-.367.015-.561.01Z" transform="translate(-195.068 -70.548)"/>
      <path id="Path_8" data-name="Path 8" class="cls-9" d="M278.886,140.04c-.2.01-.392.025-.6.03C278.489,140.065,278.692,140.06,278.886,140.04Z" transform="translate(-195.637 -70.518)"/>
      <path id="Path_9" data-name="Path 9" class="cls-10" d="M152.725,41.439V15.971a36.249,36.249,0,0,1,4.6-.333,23.606,23.606,0,0,1,6.553.874,34.627,34.627,0,0,1,5.476,2.07c.03-.253.065-.5.1-.735a27.685,27.685,0,0,0-4.711-1.837,26.586,26.586,0,0,0-7.3-1.122,31.1,31.1,0,0,0-4.726.372V9.006a4.711,4.711,0,0,1,2.487-3.689L150.734.09l-.084,44.963h4.562Q153.351,44.241,152.725,41.439Z" transform="translate(-131.363 -0.045)"/>
      <path id="Path_10" data-name="Path 10" class="cls-11" d="M143.657,63.838h-3.9a32.4,32.4,0,0,1-13.647-2.864,20.988,20.988,0,0,1-9.621-8.3,23.5,23.5,0,0,1-3.4-12.818l.04-2.075a21.559,21.559,0,0,1,3.525-11.076,24.442,24.442,0,0,1,9.581-8.544,12.657,12.657,0,0,1,1.494-.7V41.23c-.372,1.951-1.2,3.237-2.487,3.773h4.811l-.035-45h-4.771q1.929.812,2.487,3.733V16.715c-.626.248-1.246.541-1.827.829a24.243,24.243,0,0,0-10.743,10.535A29.057,29.057,0,0,0,111.8,41.354a25.036,25.036,0,0,0,5.516,16.01q4.915,6.225,14.437,8.464a31.229,31.229,0,0,0,13.191-.079A60.233,60.233,0,0,0,157.677,61.4c4.19-1.951,8.211-3.981,12.069-6.141,5.933-3.192,11.364-6.057,16.134-7.382-10.162,1.077-22.236,9.581-31.107,13.106C149.922,62.88,146.189,63.838,143.657,63.838Z" transform="translate(-111.8)"/>
    </g>
    <path id="Path_11" data-name="Path 11" class="cls-12" d="M182.909,58.516c2.671,5.714,9.254,7.769,9.254,7.769-1.177,0-4.1.074-7.5-3.222-2.214-2.15-3.371-2.011-3.376-.9s2.279,4.15,6.9,4.92a9.861,9.861,0,0,0,5.63-.77c-8.593-2.413-10.5-8.41-10.5-8.41-.169-5.342-5.466-6.93-5.466-6.93A7.073,7.073,0,0,0,182.909,58.516Z" transform="translate(-145.04 -25.666)"/>
    <path id="Path_12" data-name="Path 12" class="cls-13" d="M208.859,24.36s1.013,6.354-4.289,8.435C204.535,28.749,208.859,24.36,208.859,24.36Z" transform="translate(-158.515 -12.267)"/>
    <path id="Path_13" data-name="Path 13" class="cls-14" d="M196.3,62.576s-4.92-2.582-6.608-7.144c-1.882-5.079-.571-8.023-.571-8.023S190.658,57.672,196.3,62.576Z" transform="translate(-150.511 -23.874)"/>
    <path id="Path_14" data-name="Path 14" class="cls-15" d="M191.464,31.78c-.2,2.428-1.271,3.093-.343,5.461h0a4.53,4.53,0,0,0-.7-1.177,7.027,7.027,0,0,1-1.132-3.227c-.248-2.284.928-3.55.412-5.888C189.707,26.955,191.668,29.353,191.464,31.78Z" transform="translate(-150.805 -13.571)"/>
    <path id="Path_15" data-name="Path 15" class="cls-16" d="M177.851,50.97s4,3.629,5.059,7.541A7.066,7.066,0,0,1,177.851,50.97Z" transform="translate(-145.04 -25.666)"/>
    <path id="Path_16" data-name="Path 16" class="cls-17" d="M185.594,72.805a10.436,10.436,0,0,0,11.751,4.056,9.91,9.91,0,0,1-5.63.769c-4.617-.769-6.9-3.808-6.9-4.92,0-.685.442-1,1.291-.635C186.111,72.07,185.212,71.966,185.594,72.805Z" transform="translate(-148.57 -36.217)"/>
    <path id="Path_17" data-name="Path 17" class="cls-18" d="M234.03,32.658h.015S234.03,32.658,234.03,32.658Z" transform="translate(-173.35 -16.444)"/>
    <path id="Path_18" data-name="Path 18" class="cls-18" d="M217.31,23.529a.845.845,0,0,1,.074-.169C217.36,23.415,217.335,23.469,217.31,23.529Z" transform="translate(-164.93 -11.763)"/>
    <path id="Path_19" data-name="Path 19" class="cls-19" d="M193.55,30.359c-.208,2.84-1.445,3.634-.333,6.389h0c0-.015-.015-.03-.02-.045a8.157,8.157,0,0,1,.6,3.341,7.046,7.046,0,0,0-2.026-4.111c.521,2.452,2.006,8.112,5.208,11.915a25.593,25.593,0,0,1,.452-15.827c-.04-4.552,4.825-9.482,4.825-9.482-6.618,3.286-5.332,9.308-5.332,9.308-2.3,5.5-1.326,12.55-1.326,12.55,0,.159-1.638-4.423.194-11.135,1.3-4.771-4.339-8.519-4.339-8.519S193.758,27.519,193.55,30.359Z" transform="translate(-151.908 -11.35)"/>
  </g>
  <g id="Group_4" data-name="Group 4" transform="translate(0.233 88.506)">
    <g id="Group_3" data-name="Group 3">
      <path id="Path_20" data-name="Path 20" class="cls-20" d="M.47,197.348v-.829H2.927v-16.78H.47v-.829h8.7v.829H6.71v7.655h8.325v-7.65H12.578v-.829h8.668v.829H18.819v16.78h1.628c.367.04.635.318.8.829H12.578v-.829h2.457v-8.206H6.705v8.206H8.334c.432.04.7.318.829.829H.47Z" transform="translate(-0.47 -178.597)"/>
      <path id="Path_21" data-name="Path 21" class="cls-21" d="M67.522,184.694l-.586-1.906a5.461,5.461,0,0,0-.213-.586,3.429,3.429,0,0,0-3.351-2.457H59.44V187.4h6.052v.923H59.44v8.206h3.932a3.936,3.936,0,0,0,1.137-.154c1.067-.328,1.862-1.291,2.4-2.889l.616-1.906h.8l-.124,5.779h-15v-.829h2.457v-16.78H53.2v-.829h15l.124,5.779h-.8Z" transform="translate(-27.022 -178.602)"/>
      <path id="Path_22" data-name="Path 22" class="cls-22" d="M95.78,197.348v-.829h2.457v-16.78H95.78v-.829h9.894a7.188,7.188,0,0,1,4.116,1.137,4.269,4.269,0,0,1,2.03,3.689,5.007,5.007,0,0,1-.248,1.534,5.279,5.279,0,0,1-4,3.321l4.825,7.958h.645a2.245,2.245,0,0,1,.367.03c.268.06.4.318.4.77l-5.163.03-4.672-8.45H102.01v7.591h2.457v.829Zm6.24-17.609V188h2.3a3.224,3.224,0,0,0,1.906-.586,4.149,4.149,0,0,0,1.569-3.594,5.112,5.112,0,0,0-.308-1.782,3.284,3.284,0,0,0-3.351-2.3Z" transform="translate(-48.464 -178.597)"/>
      <path id="Path_23" data-name="Path 23" class="cls-23" d="M141.33,197.348v-.829h2.457v-16.78H141.33v-.829h8.7v.829H147.57v16.78H149.2c.432.04.7.318.829.829Z" transform="translate(-71.401 -178.597)"/>
      <path id="Path_24" data-name="Path 24" class="cls-24" d="M172.522,197.348v-.829h2.919v-16.78h-.894a3.639,3.639,0,0,0-1.107.154q-1.631.492-2.368,2.889l-.8,2.552h-.923l.154-6.424h15.673l.124,6.424h-.894l-.8-2.552c-.084-.268-.174-.521-.278-.77a3.285,3.285,0,0,0-3.2-2.274h-.923v16.78h2.09c.367.04.635.318.8.829Z" transform="translate(-85.51 -178.597)"/>
      <path id="Path_25" data-name="Path 25" class="cls-25" d="M222.29,197.348v-.829h2.12l-2.3-5.9H215.9l-2.244,5.9h1.628a1.779,1.779,0,0,1,.338.03c.288.06.432.328.432.8H210.46v-.829h1.966l6.762-17.609h1.906l7.189,17.609h.953a1.48,1.48,0,0,1,.338.03c.288.06.432.328.432.8ZM218.969,182.5l-2.735,7.189h5.5Z" transform="translate(-106.211 -178.597)"/>
      <path id="Path_26" data-name="Path 26" class="cls-26" d="M279.326,188.611v.829h-2.09v7.591l-3.351-.74a9.97,9.97,0,0,1-4.518,1.013,9.772,9.772,0,0,1-5.595-1.658q-3.813-2.614-3.813-7.928a8.917,8.917,0,0,1,9.343-9.437,10.49,10.49,0,0,1,4.334.923l2.825-.586.124,6.33H275.7a14.4,14.4,0,0,0-.894-2.706,5.04,5.04,0,0,0-4.885-3.043q-5.689.03-5.714,8.633a18.515,18.515,0,0,0,.367,3.932q1.013,4.609,5.193,4.612a5.167,5.167,0,0,0,3.778-1.445v-5.5h-2.671V188.6h8.454Z" transform="translate(-131.137 -178.28)"/>
      <path id="Path_27" data-name="Path 27" class="cls-27" d="M323.982,184.694l-.586-1.906a5.461,5.461,0,0,0-.214-.586,3.429,3.429,0,0,0-3.351-2.457H315.9V187.4h6.052v.923H315.9v8.206h3.932a3.936,3.936,0,0,0,1.137-.154c1.067-.328,1.862-1.291,2.4-2.889l.616-1.906h.8l-.124,5.779h-15v-.829h2.457v-16.78H309.66v-.829h15l.124,5.779h-.8Z" transform="translate(-156.164 -178.602)"/>
    </g>
  </g>
  <g id="Group_5" data-name="Group 5" transform="translate(30.735 124.151)">
    <path id="Path_28" data-name="Path 28" class="cls-28" d="M69.535,255.382a6.284,6.284,0,0,1-1.038,4.011,4.706,4.706,0,0,1-3.847,1.4H61.91v-.6c.377,0,.566-.079.566-.233v-9.006c0-.174-.179-.253-.541-.233v-.581h3.991a3.092,3.092,0,0,1,2.755,1.842A6.8,6.8,0,0,1,69.535,255.382Zm-1.8,0a6.087,6.087,0,0,0-.72-2.949,2.632,2.632,0,0,0-2.368-1.589h-.457c.02.238.03.452.03.635v7.566c0,.109,0,.273-.015.487s-.015.372-.015.487c0,.045.035.07.109.07h1q1.3,0,1.951-1.8A8.338,8.338,0,0,0,67.738,255.382Z" transform="translate(-61.91 -250.11)"/>
    <path id="Path_29" data-name="Path 29" class="cls-29" d="M103.934,250.7c-.367.01-.551.094-.551.248v7.318a2.478,2.478,0,0,1-.76,1.951,3.627,3.627,0,0,1-2.423.635,3.268,3.268,0,0,1-1.966-.581,2.051,2.051,0,0,1-.9-1.757v-7.566c0-.159-.174-.238-.526-.248v-.6c.869.03,1.34.04,1.425.04s.561-.015,1.41-.04v.6c-.377.01-.566.094-.566.248v7.526a1.375,1.375,0,0,0,.611,1.107,1.972,1.972,0,0,0,1.231.442,1.48,1.48,0,0,0,1.067-.417,1.41,1.41,0,0,0,.427-1.067v-7.6c0-.159-.174-.238-.526-.248v-.6c.645.03,1,.04,1.052.04s.4-.015,1-.04v.6Z" transform="translate(-79.484 -250.09)"/>
    <path id="Path_30" data-name="Path 30" class="cls-30" d="M136.845,258.991l-.4,1.782H130.52v-.6c.377,0,.566-.079.566-.233v-8.991c0-.159-.174-.233-.526-.233v-.611c.874.03,1.36.04,1.455.04s.546-.015,1.385-.04v.611c-.367,0-.551.079-.551.233v8.008a5.016,5.016,0,0,1-.035.506,4.919,4.919,0,0,0-.035.506c0,.02.025.05.07.1h2.686c.278,0,.511-.357.7-1.077h.606Z" transform="translate(-96.459 -250.095)"/>
    <path id="Path_31" data-name="Path 31" class="cls-31" d="M170.448,250.716c-.357,0-.571.1-.635.293l-2.959,9.78H165.2l-1.087-3.43-1.038,3.43h-1.648l-3.128-9.82c-.055-.164-.293-.248-.72-.248v-.611c.894.02,1.385.03,1.465.03s.551-.01,1.37-.03v.611l-.223-.015c-.129,0-.194.03-.194.084a.189.189,0,0,0,.03.094l1.961,5.893q.223.663.626,2.011c.1-.387.427-1.415.978-3.088l-1.519-4.731c-.055-.164-.3-.248-.72-.248v-.611c.884.02,1.36.03,1.425.03h3.028c.03,0,.313-.01.859-.03v.611c-.357,0-.571.1-.635.293l-1.043,3.445q.514,1.452,1.41,4.334c.1-.387.293-1.023.576-1.911l1.916-5.992a.113.113,0,0,0,.015-.055c0-.084-.159-.119-.472-.109v-.611c.68.02,1.052.03,1.107.03s.357-.01.9-.03v.6Zm-5.312.114c0-.074-.089-.109-.263-.109l-.968-.015c-.084,0-.124.03-.124.084,0,.03.1.357.318,1q.343,1.065.372,1.162.03-.082.372-1.132A10.018,10.018,0,0,0,165.136,250.83Z" transform="translate(-110.085 -250.095)"/>
    <path id="Path_32" data-name="Path 32" class="cls-32" d="M205.3,250.711c-.377,0-.566.079-.566.233v9.006c0,.159.184.233.551.233v.611c-.869-.035-1.34-.055-1.425-.055s-.561.02-1.41.055v-.611c.352,0,.526-.079.526-.233v-9.006c0-.159-.174-.233-.526-.233V250.1c.819.03,1.276.04,1.37.04s.576-.015,1.479-.04Z" transform="translate(-132.68 -250.09)"/>
    <path id="Path_33" data-name="Path 33" class="cls-33" d="M235.351,257.3l-.164,2.433h-.621l.015-.139a5.922,5.922,0,0,1-.526.442,4.112,4.112,0,0,1-2.433.774q-3.835,0-3.833-5.506a5.964,5.964,0,0,1,1.052-3.694,4.041,4.041,0,0,1,3.416-1.534,2.319,2.319,0,0,1,1.092.278,3.129,3.129,0,0,1,.69.541,3.128,3.128,0,0,0,.293.278c.03,0,.035-.1.03-.3h.581l.164,2.433h-.551a4.3,4.3,0,0,0-.884-1.648,2.136,2.136,0,0,0-1.618-.8q-1.244,0-1.921,1.742a7.837,7.837,0,0,0-.5,2.81,7.619,7.619,0,0,0,.551,2.82c.472,1.191,1.1,1.782,1.9,1.782a2.508,2.508,0,0,0,1.832-.844,2.672,2.672,0,0,0,.839-1.867h.6Z" transform="translate(-145.44 -250.08)"/>
    <path id="Path_34" data-name="Path 34" class="cls-34" d="M270.688,250.711c-.377,0-.566.079-.566.233v8.991c0,.159.189.233.566.233v.611c-.859-.03-1.326-.04-1.41-.04s-.561.015-1.44.04v-.611c.377,0,.566-.079.566-.233v-4.3H265v4.3c0,.159.184.233.551.233v.611c-.849-.03-1.316-.04-1.4-.04s-.571.015-1.44.04v-.611c.357,0,.541-.079.541-.233v-8.991c0-.159-.179-.233-.541-.233V250.1c.869.03,1.34.04,1.425.04s.566-.015,1.425-.04v.611c-.377,0-.566.079-.566.233v3.986h3.4v-3.982c0-.159-.184-.233-.551-.233V250.1c.874.03,1.355.04,1.44.04s.546-.015,1.4-.04Z" transform="translate(-163.029 -250.09)"/>
  </g>
</svg>
