<svg id="gps" xmlns="http://www.w3.org/2000/svg" width="11.78" height="16.945" viewBox="0 0 11.78 16.945">
  <defs>
    <style>
      .cls-1 {
        fill: #c09340;
      }
    </style>
  </defs>
  <path id="gps-2" data-name="gps" class="cls-1" d="M-.36,0A5.9,5.9,0,0,0-6.25,5.89c0,4.082,5.9,11.055,5.9,11.055S5.53,9.771,5.53,5.89A5.9,5.9,0,0,0-.36,0ZM1.417,7.615A2.506,2.506,0,0,1-.36,8.35a2.505,2.505,0,0,1-1.777-.735,2.516,2.516,0,0,1,0-3.554A2.5,2.5,0,0,1-.36,3.324a2.5,2.5,0,0,1,1.777.736A2.516,2.516,0,0,1,1.417,7.615Zm0,0" transform="translate(6.25)"/>
</svg>
