<svg xmlns="http://www.w3.org/2000/svg" width="11.193" height="15.653" viewBox="0 0 11.193 15.653">
  <defs>
    <style>
      .cls-1 {
        fill: #c09340;
      }
    </style>
  </defs>
  <g id="row6" transform="translate(-18.252)">
    <path id="phone_2_" class="cls-1" d="M19.309.88c-.636.477-2.458,3.093.954,9.023,3.595,6.248,7.018,5.979,7.7,5.563l-2.433-4.1c-.575.342-1.541.257-2.433-.941-.012-.012-1.736-2.91-1.748-2.947a2.15,2.15,0,0,1,.44-2.409ZM29.445,14.6,27.012,10.49l-1.162.685,2.433,4.108Zm-6.162-10.4L20.789,0,19.627.685l2.482,4.194c.012,0,1.174-.672,1.174-.685Z"/>
  </g>
</svg>
