<svg id="Component_14_4" data-name="Component 14 – 4" xmlns="http://www.w3.org/2000/svg" width="28.217" height="22.866" viewBox="0 0 28.217 22.866">
  <defs>
    <style>
      .cls-1 {
        fill: #c09340;
      }
    </style>
  </defs>
  <g id="Group_29" data-name="Group 29">
    <path id="Path_52" data-name="Path 52" class="cls-1" d="M149.07,65.486a9.018,9.018,0,0,1-.655.886,10.947,10.947,0,0,1-2.111,2l-.1.184a15.617,15.617,0,0,1-.128,2.56A17.126,17.126,0,0,1,141.4,80.8a15.556,15.556,0,0,1-7.972,4.428,17.8,17.8,0,0,1-3.221.378q-.262.008-.521.008a16.179,16.179,0,0,1-8.7-2.492l-.14-.086a12.834,12.834,0,0,0,1.357.073,11.735,11.735,0,0,0,4.428-.862,11.461,11.461,0,0,0,2.755-1.609,5.728,5.728,0,0,1-5.337-4.007,5.627,5.627,0,0,0,1.072.1,6.086,6.086,0,0,0,1.4-.168l.087-.043a5.746,5.746,0,0,1-4.558-5.714,5.688,5.688,0,0,0,2.566.692,5.785,5.785,0,0,1-1.692-7.68,16.36,16.36,0,0,0,11.856,6.038c-.03-.237-.061-.431-.092-.637a5.838,5.838,0,0,1,4.812-6.383,6.373,6.373,0,0,1,1.05-.089,5.571,5.571,0,0,1,3.992,1.7.307.307,0,0,0,.212.1.353.353,0,0,0,.089-.013,11.4,11.4,0,0,0,3.369-1.285l.076-.043a5.7,5.7,0,0,1-2.454,3.143A11.17,11.17,0,0,0,149.07,65.486Z" transform="translate(-120.853 -62.751)"/>
  </g>
</svg>
